<?xml version="1.0" encoding="UTF-8"?>
<svg width="92px" height="100px" viewBox="0 0 92 100" version="1.1" xmlns="http://www.w3.org/2000/svg" xmlns:xlink="http://www.w3.org/1999/xlink">
    <!-- Generator: Sketch 46.1 (44463) - http://www.bohemiancoding.com/sketch -->
    <title>Icon</title>
    <desc>Created with Sketch.</desc>
    <defs>
        <linearGradient x1="50%" y1="0%" x2="50%" y2="100%" id="linearGradient-1">
            <stop stop-color="#00D7F8" offset="0%"></stop>
            <stop stop-color="#00AEEE" offset="100%"></stop>
        </linearGradient>
    </defs>
    <g id="Page-1" stroke="none" stroke-width="1" fill="none" fill-rule="evenodd">
        <g id="Landing-Page" transform="translate(-536.000000, -3175.000000)" fill-rule="nonzero">
            <g id="Text-Inline" transform="translate(87.000000, 3161.000000)">
                <g id="Icon" transform="translate(429.000000, 0.000000)">
                    <path d="M75.6225044,18.4849679 L102.377496,33.3725576 C108.331922,36.6858481 112,42.8090616 112,49.4356427 L112,79.2108222 C112,85.8374031 108.331922,91.9606165 102.377496,95.2739072 L75.6225044,110.161497 C69.6680779,113.474787 62.331922,113.474787 56.3774955,110.161497 L29.6225045,95.2739072 C23.668078,91.9606165 20,85.8374031 20,79.2108222 L20,49.4356427 C20,42.8090616 23.668078,36.6858481 29.6225045,33.3725576 L56.3774955,18.4849679 C62.331922,15.1716774 69.6680779,15.1716774 75.6225044,18.4849679 Z" id="Polygon" fill="url(#linearGradient-1)" transform="translate(66.000000, 64.323232) rotate(121.000000) translate(-66.000000, -64.323232) "></path>
                    <g transform="translate(48.000000, 46.000000)" id="Shape" fill="#FFFFFF">
                        <path d="M34.5000908,0 L1.49997949,0 C0.671626312,0 0,0.671554687 0,1.49997656 L0,34.4999531 C0,35.3284453 0.671626312,36 1.49997949,36 L34.5000205,36 C35.328444,36 36,35.3284453 36,34.5000234 L36,1.49997656 C36.0000703,0.671554687 35.3285846,0 34.5000908,0 Z M33.0001113,32.9999766 L33.0001113,32.9999766 L3.0000293,32.9999766 L3.0000293,3.00002344 L33.0001113,3.00002344 L33.0001113,32.9999766 L33.0001113,32.9999766 Z"></path>
                        <path d="M25.700811,5.95275591 L10.5826535,5.95275591 C9.74770866,5.95275591 9.07086614,6.61902276 9.07086614,7.44092163 L9.07086614,10.4173228 C9.07086614,11.2392217 9.74770866,11.9055583 10.5826535,11.9055583 C11.4175984,11.9055583 12.0944409,11.2392915 12.0944409,10.4173926 L12.0944409,8.92915711 L16.629874,8.92915711 L16.629874,20.8346922 L15.1180866,20.8346922 C14.2832126,20.8346922 13.6062992,21.500959 13.6062992,22.3228579 C13.6062992,23.1447568 14.2831417,23.8110236 15.1180866,23.8110236 L21.1653071,23.8110236 C22.000252,23.8110236 22.6770945,23.1447568 22.6770945,22.3228579 C22.6770945,21.500959 22.000252,20.8346922 21.1653071,20.8346922 L19.6535197,20.8346922 L19.6535197,8.92915711 L24.1889528,8.92915711 L24.1889528,10.4173228 C24.1889528,11.2392217 24.8657953,11.9054886 25.7007402,11.9054886 C26.535685,11.9054886 27.2125984,11.2392217 27.2125984,10.4173228 L27.2125984,7.44092163 C27.2125984,6.61902276 26.5358268,5.95275591 25.700811,5.95275591 Z"></path>
                        <path d="M25.4410321,26.9291339 L10.5590377,26.9291339 C9.73720536,26.9290608 9.07086614,27.6270655 9.07086614,28.4881159 C9.07086614,29.3491663 9.7371356,30.0472441 10.5590377,30.0472441 L25.4409623,30.0472441 C26.2628644,30.0472441 26.9291339,29.3492393 26.9291339,28.488189 C26.9292036,27.6271386 26.2628644,26.9291339 25.4410321,26.9291339 Z"></path>
                    </g>
                </g>
            </g>
        </g>
    </g>
</svg>