<?xml version="1.0" encoding="UTF-8"?>
<svg width="78px" height="82px" viewBox="0 0 92 100" version="1.1" xmlns="http://www.w3.org/2000/svg" xmlns:xlink="http://www.w3.org/1999/xlink">
    <!-- Generator: Sketch 46.1 (44463) - http://www.bohemiancoding.com/sketch -->
    <title>Icon</title>
    <desc>Created with Sketch.</desc>
    <defs>
        <linearGradient x1="50%" y1="0%" x2="50%" y2="100%" id="linearGradient-1">
            <stop stop-color="#00D7F8" offset="0%"></stop>
            <stop stop-color="#00AEEE" offset="100%"></stop>
        </linearGradient>
    </defs>
    <g id="Page-1" stroke="none" stroke-width="1" fill="none" fill-rule="evenodd">
        <g id="Landing-Page" transform="translate(-86.000000, -2622.000000)" fill-rule="nonzero">
            <g id="Design-Change" transform="translate(66.000000, 2562.000000)">
                <g id="Icon" transform="translate(0.000000, 46.000000)">
                    <path d="M75.6225044,18.4849679 L102.377496,33.3725576 L102.377496,33.3725576 C108.331922,36.6858481 112,42.8090616 112,49.4356427 L112,79.2108222 L112,79.2108222 C112,85.8374031 108.331922,91.9606165 102.377496,95.2739072 L75.6225044,110.161497 L75.6225044,110.161497 C69.6680779,113.474787 62.331922,113.474787 56.3774955,110.161497 L29.6225045,95.2739072 L29.6225045,95.2739072 C23.668078,91.9606165 20,85.8374031 20,79.2108222 L20,49.4356427 L20,49.4356427 C20,42.8090616 23.668078,36.6858481 29.6225045,33.3725576 L56.3774955,18.4849679 L56.3774955,18.4849679 C62.331922,15.1716774 69.6680779,15.1716774 75.6225044,18.4849679 Z" id="Polygon" fill="url(#linearGradient-1)" transform="translate(66.000000, 64.323232) rotate(121.000000) translate(-66.000000, -64.323232) "></path>
                    <g transform="translate(49.000000, 47.000000)" id="Shape" fill="#FFFFFF">
                        <path d="M27.2645788,2.52885849 L23.0917927,2.52885849 L24.1198704,1.52102038 C24.475162,1.17272339 24.475162,0.609519738 24.1198704,0.261222745 C23.7645788,-0.0870742483 23.1900648,-0.0870742483 22.8347732,0.261222745 L20.2645788,2.78822859 C20.0907127,2.9586718 20,3.18098903 20,3.4181274 C20,3.65526578 20.0982721,3.87758301 20.2645788,4.04802622 L22.8423326,6.57503206 C23.0161987,6.74547527 23.25054,6.83440217 23.4848812,6.83440217 C23.7192225,6.83440217 23.9460043,6.74547527 24.1274298,6.57503206 C24.4827214,6.22673507 24.4827214,5.66353142 24.1274298,5.31523443 L23.0993521,4.30739632 L27.2721382,4.30739632 C29.9859611,4.30739632 32.1857451,6.47128402 32.1857451,9.12426963 L32.1857451,12.1107311 C32.1857451,12.599829 32.5939525,13 33.0928726,13 C33.5917927,13 34,12.599829 34,12.1107311 L34,9.12426963 C34,5.48567764 30.9762419,2.52885849 27.2645788,2.52885849 Z"></path>
                        <path d="M33.0773406,17 L17.9226594,17 C17.4151967,17 17,17.4151967 17,17.9226594 L17,33.0773406 C17,33.5848033 17.4151967,34 17.9226594,34 L33.0773406,34 C33.5848033,34 34,33.5848033 34,33.0773406 L34,17.9226594 C34,17.4075079 33.5848033,17 33.0773406,17 Z M32,32 L19,32 L19,19 L32,19 L32,32 L32,32 Z"></path>
                        <path d="M11.1561614,27.4258837 C10.8009178,27.0775371 10.2264813,27.0775371 9.87123768,27.4258837 C9.51599406,27.7742303 9.51599406,28.3375143 9.87123768,28.6858609 L10.8991767,29.6938426 L6.7269537,29.6938426 C4.0134971,29.6938426 1.81400999,27.5296465 1.81400999,24.8762828 L1.81400999,21.8893957 C1.81400999,21.4002281 1.40585774,21 0.907004994,21 C0.408152247,21 0,21.4002281 0,21.8893957 L0,24.8762828 C0,28.5153934 3.0157916,31.472634 6.7269537,31.472634 L10.8991767,31.472634 L9.87123768,32.4806157 C9.51599406,32.8289624 9.51599406,33.3922463 9.87123768,33.7405929 C10.0450803,33.9110604 10.2793899,34 10.5136996,34 C10.7480092,34 10.9747604,33.9110604 11.1561614,33.7405929 L13.7335673,31.2132269 C14.0888109,30.8648803 14.0888109,30.3015964 13.7335673,29.9532497 L11.1561614,27.4258837 Z"></path>
                        <path d="M1,2 C1.26666667,2 1.525,1.89166667 1.70833333,1.70833333 C1.89166667,1.525 2,1.26666667 2,1 C2,0.741666667 1.89166667,0.475 1.70833333,0.291666667 C1.525,0.108333333 1.26666667,0 1,0 C0.733333333,0 0.475,0.108333333 0.291666667,0.291666667 C0.108333333,0.475 0,0.733333333 0,1 C0,1.26666667 0.108333333,1.525 0.291666667,1.70833333 C0.483333333,1.89166667 0.733333333,2 1,2 Z"></path>
                        <path d="M9,2 C9.55,2 10,1.55 10,1 C10,0.45 9.55,0 9,0 C8.45,0 8,0.45 8,1 C8,1.55 8.44166667,2 9,2 Z"></path>
                        <path d="M5,2 C5.55,2 6,1.55 6,1 C6,0.45 5.55,0 5,0 C4.45,0 4,0.45 4,1 C4,1.55 4.45,2 5,2 Z"></path>
                        <path d="M12,2 C12.55,2 13,1.55 13,1 C13,0.45 12.55,0 12,0 C11.45,0 11,0.45 11,1 C11,1.55 11.45,2 12,2 Z"></path>
                        <path d="M16,0 C15.7416667,0 15.475,0.108333333 15.2916667,0.291666667 C15.1083333,0.475 15,0.733333333 15,1 C15,1.26666667 15.1083333,1.525 15.2916667,1.70833333 C15.475,1.89166667 15.7333333,2 16,2 C16.2666667,2 16.525,1.89166667 16.7083333,1.70833333 C16.8916667,1.525 17,1.26666667 17,1 C17,0.733333333 16.8916667,0.475 16.7083333,0.291666667 C16.525,0.108333333 16.2666667,0 16,0 Z"></path>
                        <path d="M16,11 C15.45,11 15,11.45 15,12 C15,12.55 15.45,13 16,13 C16.55,13 17,12.55 17,12 C17,11.4416667 16.5583333,11 16,11 Z"></path>
                        <path d="M16,8 C15.45,8 15,8.45 15,9 C15,9.55 15.45,10 16,10 C16.55,10 17,9.55 17,9 C17,8.44166667 16.5583333,8 16,8 Z"></path>
                        <path d="M16,4 C15.45,4 15,4.45 15,5 C15,5.55 15.45,6 16,6 C16.55,6 17,5.55 17,5 C17,4.45 16.5583333,4 16,4 Z"></path>
                        <path d="M16,15 C15.7333333,15 15.475,15.1083333 15.2916667,15.2916667 C15.1083333,15.475 15,15.7333333 15,16 C15,16.2583333 15.1083333,16.525 15.2916667,16.7083333 C15.475,16.8916667 15.7333333,17 16,17 C16.2666667,17 16.525,16.8916667 16.7083333,16.7083333 C16.8916667,16.525 17,16.2666667 17,16 C17,15.7333333 16.8916667,15.475 16.7083333,15.2916667 C16.5250833,15.1083333 16.2666667,15 16,15 Z"></path>
                        <path d="M12,17 C12.55,17 13,16.55 13,16 C13,15.45 12.55,15 12,15 C11.45,15 11,15.45 11,16 C11,16.5583333 11.45,17 12,17 Z"></path>
                        <path d="M9,17 C9.55,17 10,16.55 10,16 C10,15.45 9.55,15 9,15 C8.45,15 8,15.45 8,16 C8,16.5583333 8.44166667,17 9,17 Z"></path>
                        <path d="M5,17 C5.55,17 6,16.55 6,16 C6,15.45 5.55,15 5,15 C4.45,15 4,15.45 4,16 C4,16.5583333 4.45,17 5,17 Z"></path>
                        <path d="M1,17 C1.26666667,17 1.525,16.8916667 1.70833333,16.7083333 C1.89166667,16.525 2,16.2666667 2,16 C2,15.7333333 1.89166667,15.475 1.70833333,15.2916667 C1.525,15.1083333 1.26666667,15 1,15 C0.733333333,15 0.475,15.1083333 0.291666667,15.2916667 C0.108333333,15.475 0,15.7333333 0,16 C0,16.2583333 0.108333333,16.525 0.291666667,16.7083333 C0.483333333,16.8916667 0.733333333,17 1,17 Z"></path>
                        <path d="M1,13 C1.55,13 2,12.55 2,12 C2,11.45 1.55,11 1,11 C0.45,11 0,11.45 0,12 C0,12.55 0.45,13 1,13 Z"></path>
                        <path d="M1,10 C1.55,10 2,9.55 2,9 C2,8.45 1.55,8 1,8 C0.45,8 0,8.45 0,9 C1.85037171e-17,9.55 0.45,10 1,10 Z"></path>
                        <path d="M1,6 C1.55,6 2,5.55 2,5 C2,4.45 1.55,4 1,4 C0.45,4 0,4.45 0,5 C0,5.55 0.45,6 1,6 Z"></path>
                    </g>
                </g>
            </g>
        </g>
    </g>
</svg>