<?xml version="1.0" encoding="UTF-8"?>
<svg width="78px" height="82px" viewBox="0 0 92 100" version="1.1" xmlns="http://www.w3.org/2000/svg" xmlns:xlink="http://www.w3.org/1999/xlink">
    <!-- Generator: Sketch 46.1 (44463) - http://www.bohemiancoding.com/sketch -->
    <title>Icon</title>
    <desc>Created with Sketch.</desc>
    <defs>
        <linearGradient x1="50%" y1="0%" x2="50%" y2="100%" id="linearGradient-1">
            <stop stop-color="#00D7F8" offset="0%"></stop>
            <stop stop-color="#00AEEE" offset="100%"></stop>
        </linearGradient>
    </defs>
    <g id="Page-1" stroke="none" stroke-width="1" fill="none" fill-rule="evenodd">
        <g id="Landing-Page" transform="translate(-86.000000, -3623.000000)" fill-rule="nonzero">
            <g id="Export" transform="translate(66.000000, 3549.000000)">
                <g id="Icon" transform="translate(0.000000, 60.000000)">
                    <path d="M75.6225044,18.4849679 L102.377496,33.3725576 L102.377496,33.3725576 C108.331922,36.6858481 112,42.8090616 112,49.4356427 L112,79.2108222 L112,79.2108222 C112,85.8374031 108.331922,91.9606165 102.377496,95.2739072 L75.6225044,110.161497 L75.6225044,110.161497 C69.6680779,113.474787 62.331922,113.474787 56.3774955,110.161497 L29.6225045,95.2739072 L29.6225045,95.2739072 C23.668078,91.9606165 20,85.8374031 20,79.2108222 L20,49.4356427 L20,49.4356427 C20,42.8090616 23.668078,36.6858481 29.6225045,33.3725576 L56.3774955,18.4849679 L56.3774955,18.4849679 C62.331922,15.1716774 69.6680779,15.1716774 75.6225044,18.4849679 Z" id="Polygon" fill="url(#linearGradient-1)" transform="translate(66.000000, 64.323232) rotate(121.000000) translate(-66.000000, -64.323232) "></path>
                    <g id="icon" transform="translate(48.000000, 46.000000)" fill="#FFFFFF">
                        <path d="M29.2962908,12.6 L23.3190483,12.6 L23.3190483,15.7676556 L29.2962908,15.7676556 C31.0737402,15.7676556 32.4527856,16.5785755 32.4527856,17.2765156 L32.4527856,31.3229565 C32.4527856,32.0208966 31.0737402,32.8318164 29.2962908,32.8318164 L6.70311807,32.8318164 C4.92566869,32.8318164 3.54662332,32.0208966 3.54662332,31.3229565 L3.54662332,17.2770435 C3.54662332,16.5791034 4.92566869,15.7681836 6.70311807,15.7681836 L12.6791784,15.7681836 L12.6791784,12.6005279 L6.70311807,12.6005279 C2.94428846,12.6005279 0,14.6547526 0,17.2770435 L0,31.3234844 C0,33.9463033 2.94428846,36 6.70311807,36 L29.2968819,36 C33.0551204,36 36,33.9457753 36,31.3234844 L36,17.2770435 C35.9994089,14.6542247 33.0551204,12.6 29.2962908,12.6 Z" id="Shape"></path>
                        <path d="M13.1245126,7.98200356 C13.5496777,7.98200356 13.9742892,7.82561927 14.298699,7.51285069 L16.3780221,5.50814288 L16.3780221,12.4616395 L16.3780221,15.6640482 L16.3780221,21.7987957 C16.3780221,22.6831942 17.1215074,23.4 18.0388232,23.4 C18.956139,23.4 19.6996243,22.6831942 19.6996243,21.7987957 L19.6996243,15.6640482 L19.6996243,12.4616395 L19.6996243,5.39979472 L21.8913282,7.51285069 C22.2157381,7.82561927 22.6409032,7.98200356 23.0655147,7.98200356 C23.4901261,7.98200356 23.9152912,7.82561927 24.2397011,7.51285069 C24.8885207,6.88784727 24.8885207,5.8737512 24.2397011,5.24874778 L19.2811025,0.468085398 C18.9566926,0.155316819 18.5320811,0 18.1074697,0 C17.6573925,0 17.2327811,0.155316819 16.9083712,0.468085398 L11.9497726,5.24874778 C11.300953,5.8737512 11.300953,6.88784727 11.9497726,7.51285069 C12.2747361,7.82561927 12.6993475,7.98200356 13.1245126,7.98200356 Z" id="Shape"></path>
                    </g>
                </g>
            </g>
        </g>
    </g>
</svg>