<?xml version="1.0" encoding="UTF-8"?>
<svg width="78px" height="82px" viewBox="0 0 92 100" version="1.1" xmlns="http://www.w3.org/2000/svg" xmlns:xlink="http://www.w3.org/1999/xlink">
    <!-- Generator: Sketch 46.1 (44463) - http://www.bohemiancoding.com/sketch -->
    <title>Icon</title>
    <desc>Created with Sketch.</desc>
    <defs>
        <linearGradient x1="50%" y1="0%" x2="50%" y2="100%" id="linearGradient-1">
            <stop stop-color="#00D7F8" offset="0%"></stop>
            <stop stop-color="#00AEEE" offset="100%"></stop>
        </linearGradient>
    </defs>
    <g id="Page-1" stroke="none" stroke-width="1" fill="none" fill-rule="evenodd">
        <g id="Landing-Page" transform="translate(-536.000000, -2131.000000)" fill-rule="nonzero">
            <g id="Measure" transform="translate(58.000000, 2091.000000)">
                <g id="Icon" transform="translate(458.000000, 26.000000)">
                    <path d="M75.6225044,18.4849679 L102.377496,33.3725576 L102.377496,33.3725576 C108.331922,36.6858481 112,42.8090616 112,49.4356427 L112,79.2108222 L112,79.2108222 C112,85.8374031 108.331922,91.9606165 102.377496,95.2739072 L75.6225044,110.161497 L75.6225044,110.161497 C69.6680779,113.474787 62.331922,113.474787 56.3774955,110.161497 L29.6225045,95.2739072 L29.6225045,95.2739072 C23.668078,91.9606165 20,85.8374031 20,79.2108222 L20,49.4356427 L20,49.4356427 C20,42.8090616 23.668078,36.6858481 29.6225045,33.3725576 L56.3774955,18.4849679 L56.3774955,18.4849679 C62.331922,15.1716774 69.6680779,15.1716774 75.6225044,18.4849679 Z" id="Polygon" fill="url(#linearGradient-1)" transform="translate(66.000000, 64.323232) rotate(121.000000) translate(-66.000000, -64.323232) "></path>
                    <g transform="translate(48.000000, 46.000000)" id="Shape" fill="#FFFFFF">
                        <path d="M34.1568462,8.0861938 L27.1948998,0.996948931 C26.1070488,-0.33231631 23.9314718,-0.33231631 22.6260756,0.996948931 L0.870180783,23.1507755 C0.435090391,23.8153445 0,24.7015637 0,25.5876557 C0,26.4737476 0.217545196,27.3599669 0.870180783,28.0245359 L7.83212715,35.113908 C8.48476274,35.556954 9.35506854,36 10.2252493,36 C11.0954301,36 11.7481907,35.556954 12.4008263,35.113908 L34.1568462,12.9600815 C34.5919366,12.2955125 35.027027,11.4092933 35.027027,10.5232013 C35.027152,9.63698203 34.8096068,8.75076277 34.1568462,8.0861938 Z M32.8606516,10.9041388 L10.7787371,32.7533653 C10.3371293,33.1903197 9.67459062,33.1903197 9.23298279,32.7533653 L2.16674986,25.7615927 C2.16674986,25.5431155 1.94594595,25.3246383 1.94594595,24.8876839 C1.94594595,24.4507295 1.94594595,24.2322524 2.16674986,24.0137752 L4.7061218,21.5011618 L7.46642456,24.2323779 C7.68722848,24.4508551 8.12883631,24.4508551 8.34964023,24.4508551 C8.57044414,24.4508551 9.01205198,24.2323779 9.01205198,24.2323779 C9.45365981,23.7954235 9.45365981,23.1398664 9.01205198,22.702912 L6.25174922,19.9716959 L9.78486568,16.4758096 L12.5451684,19.2070257 C12.7659724,19.4255029 13.2075802,19.4255029 13.4283841,19.4255029 C13.649188,19.4255029 14.0907959,19.2070257 14.0907959,19.2070257 C14.5324037,18.7700713 14.5324037,18.1145141 14.0907959,17.6775598 L11.3304931,14.9463437 L14.8636096,11.4504574 L17.6239123,14.1816735 C17.8447162,14.4001507 18.2863241,14.4001507 18.507128,14.4001507 C18.7279319,14.4001507 18.9487358,14.1816735 19.1695397,14.1816735 C19.6111476,13.7447191 19.6111476,13.0891619 19.1695397,12.6522075 L16.4093639,9.92099145 L19.9424803,6.42510517 L22.7027831,9.15632126 C22.923587,9.37479846 23.3651949,9.37479846 23.5859988,9.37479846 C23.8068027,9.37479846 24.0276066,9.37479846 24.2484105,9.15632126 C24.6900183,8.71936686 24.6900183,8.06380971 24.2484105,7.62685532 L21.4881078,4.89563923 L24.2484105,2.16442314 C24.4692144,2.16442314 24.9108223,1.94594595 25.1316262,1.94594595 C25.573234,1.94594595 25.7940379,2.16442314 25.7940379,2.16442314 L32.8602709,9.1561957 C32.8602709,9.37467289 33.0810748,9.59315009 33.0810748,10.0301045 C33.0812017,10.4669333 33.0814555,10.6855361 32.8606516,10.9041388 Z"></path>
                    </g>
                </g>
            </g>
        </g>
    </g>
</svg>