<?xml version="1.0" encoding="UTF-8"?>
<svg width="18px" height="14px" viewBox="0 0 31 25" version="1.1" xmlns="http://www.w3.org/2000/svg" xmlns:xlink="http://www.w3.org/1999/xlink">
    <!-- Generator: Sketch 46.1 (44463) - http://www.bohemiancoding.com/sketch -->
    <title>twitter-logo-silhouette</title>
    <desc>Created with Sketch.</desc>
    <defs></defs>
    <g id="Page-1" stroke="none" stroke-width="1" fill="none" fill-rule="evenodd">
        <g id="Landing-Page" transform="translate(-620.000000, -6881.000000)" fill-rule="nonzero" fill="#FFFFFF">
            <g id="Footer" transform="translate(-3.000000, 6535.000000)">
                <g id="Tweet" transform="translate(349.000000, 334.000000)">
                    <g id="twitter-logo-silhouette" transform="translate(274.000000, 12.000000)">
                        <path d="M31,2.95789338 C29.8590259,3.45983557 28.6347772,3.80024702 27.3484777,3.95222271 C28.6618769,3.17137345 29.6672511,1.93283701 30.1437502,0.461559506 C28.9117515,1.1846761 27.5518522,1.70975159 26.1028531,1.99439168 C24.9425293,0.765460584 23.2920805,0 21.4614566,0 C17.9494346,0 15.1018368,2.82713998 15.1018368,6.31201986 C15.1018368,6.80626771 15.1580117,7.28899921 15.2665119,7.75060901 C9.98201631,7.48709062 5.29609526,4.97345706 2.15987281,1.15389876 C1.61164806,2.0847624 1.29977337,3.16941215 1.29977337,4.32723352 C1.29977337,6.5178056 2.42332259,8.4506426 4.12802145,9.58145836 C3.08582204,9.546859 2.10562272,9.26221891 1.24749877,8.78909275 L1.24749877,8.86794711 C1.24749877,11.9258668 3.44034712,14.4779721 6.34796952,15.0588189 C5.8152448,15.201139 5.25349551,15.2799933 4.67234587,15.2799933 C4.26169651,15.2799933 3.86457167,15.2396106 3.47519685,15.1626673 C4.28489589,17.6724788 6.6327445,19.4975951 9.41449251,19.5476335 C7.23906902,21.2400854 4.49607107,22.2459311 1.51677372,22.2459311 C1.00344935,22.2459311 0.497824343,22.2151537 0,22.1593824 C2.8146729,23.9537716 6.15624535,25 9.7476924,25 C21.4460579,25 27.8405782,15.3800197 27.8405782,7.03709776 L27.819253,6.21973813 C29.0686766,5.33499021 30.1495754,4.22338515 31,2.95789338 Z" id="Shape"></path>
                    </g>
                </g>
            </g>
        </g>
    </g>
</svg>